<svg width="252" height="182" viewBox="0 0 252 182" fill="none" xmlns="http://www.w3.org/2000/svg">
<path d="M29.7631 181.195C30.1989 174.43 42.6856 9.88588 57.844 5.98259C70.8045 2.64774 90.2072 54.3379 96.0621 69.4774C96.5109 70.5936 97.2826 71.5505 98.2784 72.2256C99.2742 72.9007 100.449 73.2633 101.652 73.267L135.114 73.627C136.268 73.6482 137.405 73.3382 138.389 72.7338C139.373 72.1293 140.163 71.2557 140.666 70.2163L169.751 6.53208C172.006 1.85192 179.225 0.165547 182.124 4.52359C194.156 22.9221 226.728 118.913 222.805 165.582" stroke="#595959" stroke-width="4" stroke-miterlimit="10"/>
<path d="M2.55377 130.263H35.3338" stroke="#595959" stroke-width="4" stroke-miterlimit="10"/>
<path d="M1 156.221L32.359 154.668" stroke="#595959" stroke-width="4" stroke-miterlimit="10"/>
<path d="M245.657 121.565L219.755 125.241" stroke="#595959" stroke-width="4" stroke-miterlimit="10"/>
<path d="M251 145.307L222.862 149.305" stroke="#595959" stroke-width="4" stroke-miterlimit="10"/>
<path d="M113.21 145.705L120.183 154.099C120.273 154.194 120.382 154.27 120.503 154.322C120.623 154.374 120.753 154.4 120.884 154.4C121.015 154.4 121.145 154.374 121.266 154.322C121.386 154.27 121.495 154.194 121.585 154.099L129.695 145.762C129.827 145.632 129.918 145.466 129.955 145.284C129.992 145.102 129.974 144.913 129.902 144.742C129.831 144.57 129.71 144.424 129.555 144.323C129.399 144.221 129.217 144.168 129.032 144.17H113.873C113.699 144.178 113.53 144.234 113.386 144.333C113.242 144.432 113.129 144.57 113.06 144.73C112.991 144.89 112.968 145.066 112.995 145.239C113.021 145.412 113.096 145.573 113.21 145.705Z" fill="#595959"/>
<path d="M90.0557 130.263C89.8683 132.765 88.7905 135.118 87.0177 136.894C85.2449 138.67 82.8944 139.753 80.3922 139.945C79.3493 140.021 78.3025 139.869 77.3243 139.499C76.3462 139.13 75.4603 138.552 74.7281 137.805C73.996 137.059 73.4353 136.162 73.0849 135.177C72.7346 134.191 72.603 133.142 72.6993 132.101C72.6968 130.958 72.92 129.826 73.3562 128.769C73.7924 127.713 74.4329 126.753 75.2411 125.945C76.0492 125.137 77.0089 124.497 78.0652 124.06C79.1215 123.624 80.2536 123.401 81.3964 123.403C86.0766 123.403 90.0557 125.45 90.0557 130.263Z" fill="#595959" stroke="#595959" stroke-miterlimit="10"/>
<path d="M176.875 128.14C176.875 132.934 172.044 136.61 167.231 136.61C162.418 136.61 158.553 134.052 158.553 129.258C158.55 128.117 158.773 126.987 159.208 125.932C159.643 124.876 160.282 123.918 161.088 123.11C161.894 122.302 162.851 121.661 163.906 121.224C164.96 120.786 166.09 120.561 167.231 120.561C172.044 120.561 176.875 123.271 176.875 128.14Z" fill="#595959" stroke="#595959" stroke-miterlimit="10"/>
<path d="M70.7666 154.668L55.3997 172.384" stroke="#F8A426" stroke-miterlimit="10"/>
<path d="M81.3585 156.202L66.3138 173.597" stroke="#F8A426" stroke-miterlimit="10"/>
<path d="M94.6032 156.828L82.4764 170.376" stroke="#F8A426" stroke-miterlimit="10"/>
<path d="M161.395 153L146.672 168.367" stroke="#F8A426" stroke-miterlimit="10"/>
<path d="M175.094 150.651L159.386 168.367" stroke="#F8A426" stroke-miterlimit="10"/>
<path d="M185.459 154.668L175.094 166.7" stroke="#F8A426" stroke-miterlimit="10"/>
</svg>
